<svg width="17" height="49" viewBox="0 0 17 49" fill="none" xmlns="http://www.w3.org/2000/svg">
<path d="M2.91105 47.0787C2.49759 47.4448 2.45924 48.0769 2.8254 48.4903C3.19155 48.9038 3.82356 48.9421 4.23702 48.576L2.91105 47.0787ZM4.09704 29.9429L3.28812 30.5309L4.09704 29.9429ZM8.82575 10.4941C11.3866 11.9494 14.6424 11.0532 16.0977 8.49234C17.5531 5.93146 16.6569 2.67569 14.096 1.22035C11.5351 -0.234978 8.27932 0.661242 6.82399 3.22212C5.36866 5.78299 6.26488 9.03877 8.82575 10.4941ZM3.57403 47.8273C4.23702 48.576 4.23748 48.5755 4.23798 48.5751C4.23819 48.5749 4.23871 48.5745 4.23913 48.5741C4.23996 48.5733 4.24092 48.5725 4.242 48.5715C4.24416 48.5696 4.24682 48.5672 4.24996 48.5644C4.25625 48.5587 4.26448 48.5512 4.27456 48.5419C4.29471 48.5234 4.32227 48.4977 4.35649 48.4649C4.4249 48.3993 4.52003 48.3054 4.63585 48.184C4.86727 47.9416 5.1825 47.5884 5.53253 47.132C6.23088 46.2215 7.07863 44.8861 7.66888 43.1882C8.86788 39.739 8.95398 34.9247 4.90595 29.355L3.28812 30.5309C6.94353 35.5603 6.76812 39.6882 5.77977 42.5315C5.27634 43.9797 4.54894 45.1281 3.94556 45.9148C3.64473 46.307 3.37745 46.6058 3.18908 46.8031C3.095 46.9017 3.02092 46.9747 2.97259 47.021C2.94843 47.0441 2.93074 47.0606 2.92023 47.0703C2.91498 47.0751 2.91153 47.0782 2.90997 47.0796C2.90919 47.0803 2.90888 47.0806 2.90905 47.0805C2.90914 47.0804 2.90935 47.0802 2.90968 47.0799C2.90985 47.0798 2.91019 47.0795 2.91027 47.0794C2.91065 47.0791 2.91105 47.0787 3.57403 47.8273ZM4.90595 29.355C1.4239 24.5641 2.99967 19.0428 5.74879 14.438C7.10658 12.1637 8.70438 10.2 9.96892 8.80058C10.5997 8.1025 11.1441 7.54876 11.5288 7.17123C11.7211 6.98254 11.8734 6.83811 11.9763 6.74192C12.0278 6.69383 12.0669 6.65782 12.0925 6.63438C12.1053 6.62267 12.1148 6.6141 12.1207 6.60873C12.1237 6.60605 12.1258 6.60418 12.127 6.60311C12.1275 6.60257 12.1279 6.60224 12.1281 6.60211C12.1281 6.60205 12.1281 6.60211 12.1281 6.60207C12.128 6.60218 12.1278 6.60234 11.4609 5.85723C10.7939 5.11212 10.7936 5.11238 10.7933 5.1127C10.7931 5.11287 10.7927 5.11323 10.7923 5.11358C10.7915 5.11427 10.7905 5.11517 10.7893 5.11628C10.7868 5.11849 10.7835 5.12151 10.7792 5.12535C10.7707 5.13304 10.7587 5.14397 10.7432 5.1581C10.7123 5.18635 10.6678 5.22736 10.6108 5.28064C10.4968 5.38718 10.3328 5.54285 10.1281 5.74364C9.71901 6.14506 9.1464 6.72776 8.48502 7.45967C7.16519 8.92024 5.47763 10.9906 4.03154 13.4128C1.17289 18.2011 -0.933265 24.7227 3.28812 30.5309L4.90595 29.355Z" fill="#969696"/>
</svg>
